<?xml version="1.0" encoding="utf-8"?>
<!-- Generator: Adobe Illustrator 28.3.0, SVG Export Plug-In . SVG Version: 6.00 Build 0)  -->
<svg version="1.1" id="Layer_1" xmlns="http://www.w3.org/2000/svg" xmlns:xlink="http://www.w3.org/1999/xlink" x="0px" y="0px"
	 viewBox="0 0 736 552" style="enable-background:new 0 0 736 552;" xml:space="preserve">
<style type="text/css">
	.st0{fill:#FDFDFD;}
</style>
<path d="M654.83,552H81.17C36.34,552,0,515.66,0,470.83V81.17C0,36.34,36.34,0,81.17,0h573.66C699.66,0,736,36.34,736,81.17v389.66
	C736,515.66,699.66,552,654.83,552z"/>
<g>
	<path class="st0" d="M438.33,30.78c40.8,40.89,81.73,81.69,122.55,122.6c4.86,4.87,4.85,12.76-0.03,17.62
		c-40.97,40.83-81.96,81.68-122.69,122.75c-4.86,4.9-12.77,4.91-17.65,0.02c-23.38-23.47-46.85-46.88-70.28-70.3
		c-4.89-4.89-4.85-12.81,0.06-17.67c23.56-23.28,46.89-46.81,70.29-70.26c4.88-4.89,12.81-4.9,17.7-0.02v0
		c4.86,4.85,4.92,12.72,0.11,17.61c-17.41,17.72-35.05,35.24-52.68,52.75c-4.9,4.86-4.9,12.78-0.02,17.65
		c11.59,11.57,23.17,23.15,34.74,34.74c4.87,4.88,12.78,4.88,17.64-0.01c28.94-29.09,57.96-58.1,87.07-87.03
		c4.87-4.84,4.91-12.72,0.07-17.6c-28.94-29.16-58.14-58.05-87.09-87.15c-4.85-4.88-12.74-4.91-17.62-0.06
		c-63.17,62.82-126.18,125.84-189,189c-4.87,4.89-12.77,4.91-17.66,0.04l-0.09-0.09c-4.89-4.87-4.91-12.79-0.03-17.68
		c68.88-69.1,137.85-138.15,207.01-206.97C425.6,25.9,433.48,25.92,438.33,30.78z"/>
	<path class="st0" d="M522.11,296.45l0.05,0.05c4.9,4.86,4.93,12.77,0.08,17.67c-68.73,69.27-137.85,138.19-206.98,207.05
		c-4.87,4.85-12.74,4.84-17.6-0.03c-40.82-40.88-81.75-81.67-122.55-122.61c-4.86-4.87-4.84-12.76,0.03-17.62
		c40.97-40.83,81.93-81.65,122.67-122.72c4.86-4.9,12.78-4.91,17.66-0.02c23.4,23.49,46.91,46.84,70.3,70.34
		c4.87,4.9,4.81,12.81-0.11,17.66c-23.58,23.25-46.85,46.78-70.25,70.2c-4.89,4.89-12.82,4.89-17.71,0l-0.01-0.01
		c-4.85-4.85-4.91-12.71-0.1-17.6c17.4-17.73,35.04-35.23,52.68-52.74c4.89-4.86,4.91-12.77,0.03-17.64l-34.76-34.76
		c-4.87-4.87-12.77-4.86-17.63,0.03c-28.95,29.11-58,58.1-87.09,87.07c-4.88,4.86-4.9,12.75-0.03,17.62
		c28.99,29.06,58.12,58,87.07,87.09c4.85,4.88,12.74,4.9,17.61,0.05c63.16-62.86,126.19-125.85,189.04-189.03
		C509.34,291.64,517.22,291.61,522.11,296.45z"/>
</g>
</svg>
